<svg xmlns="http://www.w3.org/2000/svg" viewBox="0 0 48 48" fill="none">
  <circle cx="24" cy="24" r="6" stroke="#9C5843" stroke-width="1.2"/>
  <line x1="24" y1="3" x2="24" y2="11" stroke="#9C5843" stroke-width="1.2" stroke-linecap="round"/>
  <line x1="24" y1="37" x2="24" y2="45" stroke="#9C5843" stroke-width="1.2" stroke-linecap="round"/>
  <line x1="3" y1="24" x2="11" y2="24" stroke="#9C5843" stroke-width="1.2" stroke-linecap="round"/>
  <line x1="37" y1="24" x2="45" y2="24" stroke="#9C5843" stroke-width="1.2" stroke-linecap="round"/>
  <line x1="7.6" y1="7.6" x2="13.3" y2="13.3" stroke="#9C5843" stroke-width="1.2" stroke-linecap="round"/>
  <line x1="34.7" y1="34.7" x2="40.4" y2="40.4" stroke="#9C5843" stroke-width="1.2" stroke-linecap="round"/>
  <line x1="40.4" y1="7.6" x2="34.7" y2="13.3" stroke="#9C5843" stroke-width="1.2" stroke-linecap="round"/>
  <line x1="13.3" y1="34.7" x2="7.6" y2="40.4" stroke="#9C5843" stroke-width="1.2" stroke-linecap="round"/>
  <line x1="5.5" y1="15.3" x2="12.9" y2="17.3" stroke="#9C5843" stroke-width="1.2" stroke-linecap="round"/>
  <line x1="35.1" y1="30.7" x2="42.5" y2="32.7" stroke="#9C5843" stroke-width="1.2" stroke-linecap="round"/>
  <line x1="15.3" y1="5.5" x2="17.3" y2="12.9" stroke="#9C5843" stroke-width="1.2" stroke-linecap="round"/>
  <line x1="30.7" y1="35.1" x2="32.7" y2="42.5" stroke="#9C5843" stroke-width="1.2" stroke-linecap="round"/>
  <line x1="42.5" y1="15.3" x2="35.1" y2="17.3" stroke="#9C5843" stroke-width="1.2" stroke-linecap="round"/>
  <line x1="12.9" y1="30.7" x2="5.5" y2="32.7" stroke="#9C5843" stroke-width="1.2" stroke-linecap="round"/>
  <line x1="32.7" y1="5.5" x2="30.7" y2="12.9" stroke="#9C5843" stroke-width="1.2" stroke-linecap="round"/>
  <line x1="17.3" y1="35.1" x2="15.3" y2="42.5" stroke="#9C5843" stroke-width="1.2" stroke-linecap="round"/>
</svg>
